<svg width="58" height="218" viewBox="0 0 218 218" fill="none" xmlns="http://www.w3.org/2000/svg">
<path d="M104.464 212.536C106.417 214.488 109.583 214.488 111.536 212.536L143.355 180.716C145.308 178.763 145.308 175.597 143.355 173.645C141.403 171.692 138.237 171.692 136.284 173.645L108 201.929L79.7157 173.645C77.7631 171.692 74.5973 171.692 72.6447 173.645C70.692 175.597 70.692 178.763 72.6447 180.716L104.464 212.536ZM103 109L103 209H113L113 109H103Z" fill="black"/>
<path d="M104.464 5.46447C106.417 3.51184 109.583 3.51184 111.536 5.46447L143.355 37.2843C145.308 39.2369 145.308 42.4027 143.355 44.3553C141.403 46.308 138.237 46.308 136.284 44.3553L108 16.0711L79.7157 44.3553C77.7631 46.308 74.5973 46.308 72.6447 44.3553C70.692 42.4027 70.692 39.2369 72.6447 37.2843L104.464 5.46447ZM103 109L103 9H113L113 109H103Z" fill="black"/>
<path d="M6.46447 112.536C4.51184 110.583 4.51184 107.417 6.46447 105.464L38.2843 73.6447C40.2369 71.692 43.4027 71.692 45.3553 73.6447C47.308 75.5973 47.308 78.7631 45.3553 80.7157L17.0711 109L45.3553 137.284C47.308 139.237 47.308 142.403 45.3553 144.355C43.4027 146.308 40.2369 146.308 38.2843 144.355L6.46447 112.536ZM110 114L10 114V104L110 104V114Z" fill="black"/>
<path d="M211.536 112.536C213.488 110.583 213.488 107.417 211.536 105.464L179.716 73.6447C177.763 71.692 174.597 71.692 172.645 73.6447C170.692 75.5973 170.692 78.7631 172.645 80.7157L200.929 109L172.645 137.284C170.692 139.237 170.692 142.403 172.645 144.355C174.597 146.308 177.763 146.308 179.716 144.355L211.536 112.536ZM108 114L208 114V104L108 104V114Z" fill="black"/>
</svg>
